<svg id="Layer_1" data-name="Layer 1" xmlns="http://www.w3.org/2000/svg" viewBox="0 0 719.74 719.74"><defs><style>.cls-1{fill:#42aaf4;}</style></defs><title>star</title><path class="cls-1" d="M500,859.87a358.94,358.94,0,1,1,140.09-28.3A357.64,357.64,0,0,1,500,859.87Zm0-578c-120.27,0-218.12,97.85-218.12,218.12S379.73,718.12,500,718.12,718.12,620.27,718.12,500,620.27,281.88,500,281.88Z" transform="translate(-140.13 -140.13)"/><path class="cls-1" d="M512.09,300.77l59.07,110.39,115.58,16.78a13.72,13.72,0,0,1,8.57,22.36l-80.18,96.21,12.71,110.64a13.72,13.72,0,0,1-18.48,14.39L500,630.16,390.64,671.54a13.72,13.72,0,0,1-18.48-14.39l12.71-110.64L304.69,450.3a13.72,13.72,0,0,1,8.57-22.36l115.58-16.78,59.07-110.39A13.71,13.71,0,0,1,512.09,300.77Z" transform="translate(-140.13 -140.13)"/></svg>