<svg xmlns="http://www.w3.org/2000/svg" viewBox="0 0 719.74 719.74"><defs><style>.cls-1{fill:#ffc200;}.cls-2{fill:#ff9d00;}</style></defs><title>Asset 2coq</title><g id="Layer_2" data-name="Layer 2"><g id="Layer_1-2" data-name="Layer 1"><path class="cls-1" d="M359.87,711.74a352,352,0,0,1-137-676.07,351.95,351.95,0,0,1,274,648.4A349.66,349.66,0,0,1,359.87,711.74Zm0-609.92c-142.29,0-258,115.76-258,258.05s115.76,258,258.05,258,258-115.76,258-258S502.16,101.82,359.87,101.82Z"/><path class="cls-2" d="M359.87,16A344,344,0,0,1,493.73,676.7,343.95,343.95,0,0,1,226,43,341.73,341.73,0,0,1,359.87,16m0,609.92c146.7,0,266-119.35,266-266s-119.35-266-266-266-266,119.35-266,266.05,119.35,266,266.05,266M359.87,0A360,360,0,0,0,219.78,691.44,359.95,359.95,0,0,0,500,28.3,357.64,357.64,0,0,0,359.87,0Zm0,609.92c-137.88,0-250-112.17-250-250s112.17-250,250.05-250,250,112.17,250,250.05-112.17,250-250,250Z"/><path class="cls-1" d="M474.11,524.32a5.65,5.65,0,0,1-2.05-.39L362.7,482.55a8,8,0,0,0-5.66,0L247.68,523.93a5.62,5.62,0,0,1-6.32-1.57,5.56,5.56,0,0,1-1.38-4.43l12.7-110.64a8,8,0,0,0-1.8-6L170.71,305a5.71,5.71,0,0,1,3.57-9.31L289.86,279a8,8,0,0,0,5.91-4.15l59.06-110.39a5.72,5.72,0,0,1,10.08,0L424,274.8a8,8,0,0,0,5.91,4.15l115.58,16.78A5.71,5.71,0,0,1,549,305l-80.17,96.22a8,8,0,0,0-1.8,6l12.7,110.64a5.56,5.56,0,0,1-1.38,4.43A5.78,5.78,0,0,1,474.11,524.32Z"/><path class="cls-2" d="M361.88,168.19h0m-2,3.76,57.05,106.63a16,16,0,0,0,11.81,8.28l111.54,16.2-77.56,93.08a16,16,0,0,0-3.6,12.06l12.27,106.92L365.53,475.07a15.92,15.92,0,0,0-11.32,0L248.35,515.12,260.63,408.2a16,16,0,0,0-3.6-12.06l-77.56-93.08L291,286.86a16,16,0,0,0,11.81-8.28L359.87,172m0-18.56a13.59,13.59,0,0,0-12.1,7.25L288.71,271,173.13,287.81a13.72,13.72,0,0,0-8.57,22.36l80.17,96.21L232,517a13.67,13.67,0,0,0,18.48,14.39L359.87,490l109.35,41.38A13.68,13.68,0,0,0,487.71,517L475,406.38l80.17-96.21a13.72,13.72,0,0,0-8.56-22.36L431,271,372,160.64a13.57,13.57,0,0,0-12.09-7.25Z"/></g></g></svg>