<svg id="Layer_1" data-name="Layer 1" xmlns="http://www.w3.org/2000/svg" xmlns:xlink="http://www.w3.org/1999/xlink" viewBox="0 0 71.22 88.21"><defs><style>.cls-1{fill:url(#linear-gradient);}.cls-2{opacity:0.25;}.cls-3{fill:url(#linear-gradient-2);}.cls-4{fill:#4c1c06;opacity:0.21;}.cls-5{fill:url(#linear-gradient-3);}.cls-6{opacity:0.15;}.cls-7{fill:url(#linear-gradient-4);}.cls-8{fill:url(#linear-gradient-5);}.cls-9{fill:url(#linear-gradient-6);}.cls-10{opacity:0.13;}.cls-11{fill:url(#linear-gradient-7);}.cls-12{fill:url(#linear-gradient-8);}.cls-13{fill:#3a1e17;}</style><linearGradient id="linear-gradient" x1="17.8" y1="77.76" x2="53.42" y2="16.07" gradientUnits="userSpaceOnUse"><stop offset="0" stop-color="#f50"/><stop offset="0.99" stop-color="#b494ff"/></linearGradient><linearGradient id="linear-gradient-2" x1="34.13" y1="88.21" x2="34.13" y2="71.43" gradientUnits="userSpaceOnUse"><stop offset="0.24" stop-color="#ffa200"/><stop offset="0.99" stop-color="#fff200"/></linearGradient><linearGradient id="linear-gradient-3" x1="406.47" y1="363.59" x2="406.47" y2="331.06" gradientUnits="userSpaceOnUse"><stop offset="0" stop-color="#2b0b06"/><stop offset="0.66" stop-color="#711d10"/></linearGradient><linearGradient id="linear-gradient-4" x1="393.7" y1="344.25" x2="393.7" y2="315.36" gradientTransform="matrix(-0.98, -0.18, -0.18, 0.98, 846.99, 78.17)" gradientUnits="userSpaceOnUse"><stop offset="0" stop-color="#62120a"/><stop offset="0.66" stop-color="#c41d10"/></linearGradient><linearGradient id="linear-gradient-5" x1="386.66" y1="318.8" x2="387.71" y2="315.82" gradientTransform="translate(65.44 -68.44) rotate(10.62)" gradientUnits="userSpaceOnUse"><stop offset="0.46" stop-color="#ffa200"/><stop offset="0.99" stop-color="#fff200"/></linearGradient><linearGradient id="linear-gradient-6" x1="388.61" y1="325.11" x2="387.31" y2="322.86" gradientTransform="translate(65.44 -68.44) rotate(10.62)" gradientUnits="userSpaceOnUse"><stop offset="0.23" stop-color="#ffa200"/><stop offset="0.45" stop-color="#ffac00"/><stop offset="0.99" stop-color="#fff200"/></linearGradient><linearGradient id="linear-gradient-7" x1="387.24" y1="310.77" x2="387.24" y2="285.22" gradientTransform="matrix(-0.98, -0.18, -0.18, 0.98, 846.99, 78.17)" gradientUnits="userSpaceOnUse"><stop offset="0" stop-color="#9d241a"/><stop offset="0.66" stop-color="#ff5b4d"/></linearGradient><linearGradient id="linear-gradient-8" x1="393.22" y1="336.71" x2="393.22" y2="309.24" gradientTransform="matrix(-0.98, -0.18, -0.18, 0.98, 846.99, 78.17)" gradientUnits="userSpaceOnUse"><stop offset="0" stop-color="#f93f68"/><stop offset="1" stop-color="#ff6a53"/></linearGradient></defs><title>coq</title><circle class="cls-1" cx="35.61" cy="46.91" r="35.61"/><path class="cls-2" d="M405,368.09l-.5-4.76a30.78,30.78,0,0,0,25-15.47l-3.9-.73,2.9-4.58L422.8,344l.85-4.42s-9.71,4.31-12,3.28l-.65-.51-.1-.09c1.07-1,.54-2.27.24-4.75h0l-.13-1.11a.41.41,0,0,1,0-.11,2.84,2.84,0,0,0,2.91.65c1.93-.72-3.52-4.23-2.29-12.29,1-6.91-2.59-12.74-6.09-14.72.71-1.28,2.75-3.57,7.92-2,3.44,1,5.31,4.68,5.31,4.68s-1.3-5.15-4.37-6.84a11.92,11.92,0,0,0-7.81-.95s3.95-3.29,10.93-2.2,10.92,11.28,10.92,11.28a30.07,30.07,0,0,0-.8-6.54c-.06-.27-4.33-3.31-4.89-3.71-3.54-2.48-2.53-2.15-2.53-2.15s-3.55-5.35-8.16-3.31a15.51,15.51,0,0,0-6.69,5.27,12.13,12.13,0,0,1,2-6.12c.07-.11-3.79-.11-4.71-1.23-4.35-5.31,4.32-2.67,4.32-2.67s6,1.55-1.79-1.93c-4.74-2.11-4.78,1.88-4.78,1.88s-2.67-9-4.5-2.69c-1.54,5.28,3.29,16.42,4.46,19a13.63,13.63,0,0,0-6.63,6.09c-4.19-1.95-6-2.95-9.59-3.8,0,0,6.35,4.37,8.24,6.62,0,0,0,0,0,.06-2.24,1.23-9.16,3.09-9.16,3.09a43,43,0,0,0,8.28-.55c-2.44,6.32-7.82,10.2-4.4,11-.17.45-.33.89-.46,1.32l0,.07h0c-1.08,3.49-.77,6.36.81,7.71v0h0c-.39,1.32-3,10.88-.52,15.53,1.91,3.53,6.19,6.19,14.31,6.5.51,0,1,0,1.51,0h0v1.16l0,3.62" transform="translate(-366.9 -285.65)"/><polygon class="cls-3" points="34.59 76.22 34.69 84.83 31.43 85.3 34.69 85.91 30.95 86.59 35.03 86.59 33.3 88.21 37.3 86.32 35.75 71.43 34.59 76.22"/><polygon class="cls-4" points="34.63 79.7 36.62 79.74 36.42 77.89 35.57 77.3 34.61 77.94 34.63 79.7"/><path class="cls-5" d="M386.25,341.38s-3.26,10.68-.56,15.68c1.9,3.53,6.19,6.19,14.31,6.5a30.78,30.78,0,0,0,28.31-15.5l-3.9-.73,2.9-4.58-5.72,1.42.85-4.42s-10.42,4.63-12.27,3.15c-3.54-2.82-7.67-11.84-7.67-11.84l-13.44,2.19Z" transform="translate(-366.9 -285.65)"/><path class="cls-6" d="M385.78,343.12a5.09,5.09,0,0,0,3.14.58c2.63-.23,4.55-3.75,5.15-5.63,0,0,.61,7.89,4.11,7.68s5.47-4.92,5.36-6.53c0,0,2.68,5.6,5,5.38A3.06,3.06,0,0,0,410.4,343l-.75-.59-5.27-7.21-10.73-1.77-7.45,8.07Z" transform="translate(-366.9 -285.65)"/><path class="cls-7" d="M401.62,315.48c-9.17-1.72-7.94,4.87-12.68,11.44-5.32,7.37-5.43,14.56-1.12,15.36,3.32.62,6.83-7.59,6.83-7.59s-.29,10,4.36,9.17c3.9-.71,4.05-7.16,4.05-7.16s2.89,8,6,6.16c2.86-1.67-.44-3.84,1.07-11.85C410.41,329.54,410.8,317.2,401.62,315.48Z" transform="translate(-366.9 -285.65)"/><path class="cls-8" d="M392.84,316.08c-4.42-2-6.19-3.07-9.9-3.94,0,0,6.45,4.44,8.29,6.67l1.61-2.73" transform="translate(-366.9 -285.65)"/><path class="cls-9" d="M392,321.14c-4.55.55-6.42.92-10,.77,0,0,7-1.87,9.19-3.11l.85,2.34" transform="translate(-366.9 -285.65)"/><path class="cls-10" d="M409.91,337.69c-2.91-.52-3.87-4.58-3.87-4.58s-3,4.87-6.85,4.69-5.76-7.05-5.76-7.05-3.86,3.89-8,3.05l.52-1.38,8.78-3.69,12.1,1.66,3.71,3.46-.74,2.63Z" transform="translate(-366.9 -285.65)"/><path class="cls-11" d="M399.41,310.4s-6.46-13.57-4.71-19.56c1.83-6.28,11.14-5.1,11.14-5.1s6.87.73,11.61,2.84a33.44,33.44,0,0,1,12.09,9.18s-15.25-7-20.78-3a11.81,11.81,0,0,0-4.63,8.82,15.53,15.53,0,0,1,6.69-5.26c4.61-2,10.35-.7,10.35-.7a29.05,29.05,0,0,1,4.45,7.48A26.21,26.21,0,0,1,427.2,314s-3.95-10.2-10.92-11.29S405.34,305,405.34,305a11.92,11.92,0,0,1,7.81,1c3.08,1.69,4.38,6.84,4.38,6.84s-1.87-3.66-5.31-4.68c-7-2.06-8.25,2.8-8.25,2.8Z" transform="translate(-366.9 -285.65)"/><path class="cls-12" d="M402.59,309.44c-3.75-.71-9.52,3-11.89,10.72-2.17,7.06-8.5,11.37-4.79,12.26,2.75.66,8-3.33,8-3.33s2.56,7.15,4.92,7.59c4.45.83,7.56-6.1,7.56-6.1s2.44,8,6.33,6.54c1.93-.72-3.52-4.23-2.29-12.29S406.44,310.16,402.59,309.44Z" transform="translate(-366.9 -285.65)"/><path class="cls-13" d="M401.44,318.61c-2.24-1.58-5.85-.62-4.82,1.32.59,1.13,2.46-.55,3.61.81C402.15,323,403.82,320.29,401.44,318.61Z" transform="translate(-366.9 -285.65)"/></svg>