<svg id="Layer_1" data-name="Layer 1" xmlns="http://www.w3.org/2000/svg" viewBox="0 0 137 163.3"><defs><style>.cls-1{fill:#fff;}</style></defs><title>home</title><path class="cls-1" d="M346.09,349.57l-11.78-9.42V310.51H316.75V326.1L282.5,298.7l-61.72,49.37A18,18,0,0,0,214,362.19V451a11,11,0,0,0,11,11H340a11,11,0,0,0,11-11V359.79A13,13,0,0,0,346.09,349.57Zm-13.53,94h-59.5V393.5H243.64v50.06h-11.2V367.64a11,11,0,0,1,4.12-8.57l45.94-36.75,45.94,36.75a11,11,0,0,1,4.12,8.57Z" transform="translate(-214 -298.7)"/></svg>