<svg id="Layer_1" data-name="Layer 1" xmlns="http://www.w3.org/2000/svg" viewBox="0 0 133.32 148.87"><defs><style>.cls-1{fill:#fff;}</style></defs><title>practice</title><path class="cls-1" d="M524.25,384.5v55.25a6.44,6.44,0,0,1-6.44,6.44h-77.5a6.43,6.43,0,0,1-6.43-6.44V348.13a10.43,10.43,0,0,1,10.43-10.44h54.82a6,6,0,0,0,6-6v-6a6,6,0,0,0-6-6H444.31a28.43,28.43,0,0,0-28.43,28.44v91.62a24.44,24.44,0,0,0,24.43,24.44h77.5a24.44,24.44,0,0,0,24.44-24.44V384.5a6,6,0,0,0-6-6h-6A6,6,0,0,0,524.25,384.5Z" transform="translate(-415.88 -315.32)"/><rect class="cls-1" x="29.25" y="42.18" width="24.38" height="6.37" rx="3.19"/><rect class="cls-1" x="29.25" y="57.93" width="43.63" height="6.37" rx="3.19"/><rect class="cls-1" x="29.25" y="73.68" width="38.63" height="6.37" rx="3.19"/><rect class="cls-1" x="29.25" y="89.43" width="59.06" height="6.37" rx="3.19"/><rect class="cls-1" x="29.25" y="105.18" width="67.88" height="6.37" rx="3.19"/><path class="cls-1" d="M545.72,329.56l2.12-3a7.16,7.16,0,0,0-.85-9.38,7,7,0,0,0-10.47,1.13l-2.44,3.47Z" transform="translate(-415.88 -315.32)"/><path class="cls-1" d="M530.63,326.67l-31.58,44.9a3.92,3.92,0,0,0-.7,1.86l-1.41,12.51,11.92-5a4,4,0,0,0,1.71-1.38l31.69-45.06Z" transform="translate(-415.88 -315.32)"/></svg>